<svg width="46" height="47" viewBox="0 0 46 47" fill="none" xmlns="http://www.w3.org/2000/svg">
<path d="M28.6714 44.7678L31.4071 31.3289L44.027 25.9591C44.3446 25.819 44.6172 25.5936 44.8147 25.3081C45.0121 25.0225 45.1266 24.6879 45.1454 24.3412C45.1643 23.9946 45.0868 23.6495 44.9216 23.3441C44.7563 23.0388 44.5098 22.7852 44.2093 22.6115L32.2389 15.8623L31.0274 2.19639C30.9945 1.84733 30.8652 1.51429 30.6539 1.23452C30.4426 0.954755 30.1576 0.739287 29.8308 0.612205C29.504 0.485124 29.1484 0.451434 28.8036 0.514918C28.4587 0.578402 28.1384 0.736555 27.8783 0.971681L17.7651 10.2424L4.40507 7.16437C4.06232 7.0837 3.7038 7.10092 3.37036 7.21405C3.03692 7.32717 2.74195 7.53167 2.51905 7.80424C2.29614 8.07682 2.15427 8.40651 2.10958 8.75578C2.0649 9.10504 2.11919 9.45984 2.26629 9.77975L8.00221 22.2395L0.940265 33.9937C0.759588 34.2963 0.667121 34.6434 0.67331 34.9958C0.6795 35.3482 0.784101 35.6918 0.975293 35.9879C1.16649 36.284 1.43666 36.5207 1.75529 36.6713C2.07392 36.8219 2.42832 36.8805 2.77847 36.8403L16.3521 35.2824L25.3544 45.6504C25.5828 45.9324 25.8879 46.1424 26.233 46.2548C26.578 46.3673 26.9482 46.3775 27.2989 46.2841C27.6497 46.1908 27.9659 45.998 28.2094 45.7289C28.4529 45.4598 28.6134 45.126 28.6714 44.7678Z" fill="#FF7556"/>
</svg>
