<svg width="89" height="89" viewBox="0 0 89 89" fill="none" xmlns="http://www.w3.org/2000/svg">
<path d="M59.8939 54.3109C61.8007 52.3546 63.0843 49.8766 63.5825 47.1905C64.0807 44.5045 63.771 41.731 62.6927 39.221C61.6144 36.7109 59.8158 34.5771 57.5245 33.0894C55.2333 31.6018 52.5522 30.8271 49.8206 30.8634C47.089 30.8996 44.4295 31.7453 42.1786 33.2933C39.9276 34.8413 38.1864 37.0222 37.1751 39.56C36.1638 42.0978 35.928 44.8785 36.4974 47.5504C37.0667 50.2223 38.4158 52.6652 40.3738 54.5703C42.9975 57.123 46.5273 58.5295 50.1875 58.4809C53.8478 58.4323 57.339 56.9324 59.8939 54.3109Z" fill="#FFCD7B"/>
<path d="M16.8103 69.0122C20.024 66.4383 23.1637 63.5307 26.7002 61.4571C29.7406 59.6767 33.0451 63.792 30.5414 66.3455C27.481 69.4764 23.5899 71.9845 20.1289 74.6647C18.7326 75.7492 16.4606 74.8914 15.6476 73.5034C14.6463 71.8058 15.4113 70.1166 16.8103 69.0122Z" fill="#FFCD7B"/>
<path d="M9.80023 40.696C15.0379 41.5808 20.2379 41.5917 25.5147 41.9165C29.6444 42.1391 29.6013 47.7083 25.6278 48.2351C19.908 48.9686 13.8545 48.2103 8.2024 47.2566C7.75751 47.1678 7.33522 46.9898 6.96098 46.7333C6.58674 46.4769 6.26828 46.1474 6.02485 45.7645C5.78141 45.3817 5.61804 44.9536 5.54454 44.5059C5.47105 44.0582 5.48898 43.6003 5.59724 43.1597C5.7055 42.7192 5.90185 42.3051 6.17447 41.9425C6.44708 41.5799 6.79031 41.2762 7.18345 41.0498C7.57659 40.8234 8.01151 40.679 8.46198 40.6253C8.91245 40.5715 9.36913 40.6095 9.80451 40.737L9.80023 40.696Z" fill="#FFCD7B"/>
<path d="M32.3549 27.3836C32.4949 27.9655 32.4086 28.5789 32.1134 29.0996C31.8182 29.6202 31.3362 30.0093 30.765 30.188C27.7736 31.339 24.865 28.7041 22.7873 26.8336C20.6308 24.8554 18.7771 22.5708 17.2855 20.0531C15.0718 16.3654 20.8274 12.9605 23.0497 16.6595C27.3936 23.9119 31.6189 23.6027 32.3549 27.3836Z" fill="#FFCD7B"/>
<path d="M53.0248 9.7029C52.3028 16.7817 53.5237 20.4194 51.0592 22.5542C50.7618 22.8443 50.4031 23.0639 50.0095 23.1971C49.6159 23.3303 49.1975 23.3735 48.7851 23.3237C48.3726 23.2739 47.9765 23.1322 47.626 22.9092C47.2755 22.6861 46.9794 22.3873 46.7596 22.0348C45.4244 20.2697 46.0019 17.766 46.0524 15.7026C46.1029 13.6392 46.1578 11.7583 46.3667 9.78807C46.3804 8.91423 46.7271 8.07857 47.336 7.4517C47.9449 6.82483 48.7702 6.45405 49.6433 6.41505C51.2837 6.3853 53.2056 7.93072 53.0262 9.69299L53.0248 9.7029Z" fill="#FFCD7B"/>
<path d="M65.6521 19.0098C68.9498 17.1246 69.9843 16.3119 72.3246 16.1189C74.368 15.9544 76.1 18.6243 74.8924 20.3719C73.4814 22.4139 72.5286 22.7938 69.0457 24.774C68.6673 24.9968 68.2486 25.1429 67.8137 25.2039C67.3787 25.2649 66.936 25.2397 66.5108 25.1296C66.0856 25.0196 65.6863 24.8269 65.3356 24.5625C64.9849 24.2981 64.6897 23.9672 64.4669 23.5887C64.244 23.2102 64.0979 22.7916 64.0369 22.3566C63.9759 21.9217 64.0011 21.479 64.1112 21.0538C64.2212 20.6286 64.414 20.2293 64.6784 19.8786C64.9428 19.5279 65.2736 19.2327 65.6521 19.0098Z" fill="#FFCD7B"/>
<path d="M73.0161 36.5084C80.2869 36.8738 81.9795 36.6899 83.5635 38.3389C84.4963 39.3096 84.8163 41.2538 83.6306 42.2067C81.419 43.9835 79.696 43.5268 73.1167 43.0576C72.2542 43.0502 71.4278 42.7105 70.8095 42.1091C70.1912 41.5077 69.8287 40.691 69.7975 39.8291C69.7892 38.9634 70.1224 38.1294 70.7249 37.5078C71.3274 36.8863 72.1506 36.5272 73.0161 36.5084Z" fill="#FFCD7B"/>
<path d="M77.798 66.9324C78.7604 69.3315 75.5184 71.7498 73.4241 70.3517C71.3298 68.9535 70.9642 68.1845 63.5273 59.1699C62.9127 58.5409 62.5623 57.7005 62.5481 56.8212C62.5339 55.942 62.857 55.0907 63.4509 54.4422C64.6293 53.256 67.0289 52.93 68.1786 54.3658C75.91 63.796 76.837 64.5234 77.798 66.9324Z" fill="#FFCD7B"/>
<path d="M51.892 69.6991C52.7851 78.4212 54.1807 78.1951 53.6799 82.6489C53.4582 84.6375 50.2374 85.554 48.9831 84.0023C47.3379 82.0012 47.0926 81.2392 46.2573 77.0906C45.7697 74.6817 45.4036 72.2498 45.1604 69.8042C45.1527 68.9122 45.4959 68.0529 46.116 67.4116C46.7361 66.7703 47.5833 66.3983 48.4751 66.376C49.3643 66.3789 50.2176 66.7271 50.8551 67.3471C51.4925 67.9671 51.8643 68.8104 51.892 69.6991Z" fill="#FFCD7B"/>
</svg>
