<svg width="111" height="110" viewBox="0 0 111 110" fill="none" xmlns="http://www.w3.org/2000/svg">
<path d="M59.7296 48.1165C61.4098 46.936 63.3316 46.144 65.3556 45.7977C67.3797 45.4513 69.4554 45.5594 71.4325 46.1141C72.8235 46.4728 74.128 47.1077 75.2686 47.9809C76.4091 48.8541 77.3624 49.9478 78.0716 51.197C78.7808 52.4462 79.2315 53.8252 79.3968 55.2521C79.5621 56.679 79.4387 58.1246 79.0339 59.5028C77.2745 66.1207 69.3962 72.4044 52.5232 75.2062C39.3017 64.3884 35.5545 55.0277 37.3139 48.4098C37.6498 47.0125 38.2627 45.6969 39.1163 44.5408C39.97 43.3847 41.0469 42.4117 42.2834 41.6794C43.5199 40.9471 44.8908 40.4704 46.3149 40.2775C47.739 40.0846 49.1873 40.1795 50.574 40.5565C52.5648 41.0597 54.4189 41.999 56.0023 43.3065C57.5857 44.6139 58.8588 46.2568 59.7296 48.1165Z" fill="#FF8D7F"/>
<path d="M7.98901 37.149C12.9499 39.3906 18.0332 41.3507 23.2148 43.0198C24.7877 43.5378 27.3413 44.8508 28.8604 43.8545C29.2471 43.6463 29.5395 43.2981 29.6777 42.8812C29.8159 42.4643 29.7894 42.0104 29.6036 41.6124C28.8717 39.9393 26.346 39.695 24.7763 39.1864C20.0198 37.6453 14.6049 35.6639 9.30108 33.3589C8.79848 33.1849 8.24735 33.2177 7.76892 33.4501C7.2905 33.6825 6.92397 34.0953 6.74998 34.5979C6.57599 35.1006 6.60878 35.6517 6.84115 36.1301C7.07351 36.6085 7.48641 36.975 7.98901 37.149V37.149Z" fill="#FF8D7F"/>
<path d="M84.2143 75.2964C86.5009 76.0772 88.803 76.8104 91.0989 77.5564C93.3947 78.3023 95.7765 79.4839 98.0716 79.395C98.4459 79.4107 98.8152 79.3051 99.1247 79.0941C99.4342 78.883 99.6673 78.5777 99.7894 78.2235C99.9114 77.8694 99.9159 77.4853 99.8022 77.1283C99.6885 76.7714 99.4626 76.4607 99.1582 76.2425C97.2894 74.7687 94.6265 74.3706 92.4196 73.6681C90.2126 72.9657 87.8216 72.189 85.5104 71.4906C83.1991 70.7922 81.7373 74.4539 84.1888 75.2839L84.2143 75.2964Z" fill="#FF8D7F"/>
<path d="M19.4382 74.0714C23.8927 70.1663 27.8838 69.8132 31.1612 68.8274C31.5411 68.7467 31.8794 68.5322 32.1144 68.223C32.3494 67.9138 32.4654 67.5304 32.4415 67.1428C32.4175 66.7552 32.2551 66.3891 31.9838 66.1111C31.7125 65.8332 31.3504 65.662 30.9635 65.6287C25.9095 64.8238 20.4227 67.8142 16.7818 71.0706C14.864 72.7849 17.495 75.7734 19.4382 74.0714Z" fill="#FF8D7F"/>
<path d="M41.9773 94.8039C42.6383 92.4149 43.7916 90.1905 45.363 88.2734C46.3428 87.0919 50.3126 84.2092 47.8358 82.6267C45.359 81.0443 42.7885 84.864 41.6127 86.4298C40.0296 88.545 38.86 90.9399 38.1651 93.4888C37.4872 95.9833 41.2711 97.3081 41.9773 94.8039Z" fill="#FF8D7F"/>
<path d="M66.1518 86.6878C67.1276 88.0236 68.1255 89.3624 69.0762 90.7173C70.0268 92.0723 70.8288 93.7954 72.6204 93.9953C73.0774 94.0211 73.5266 93.8689 73.8738 93.5705C74.2209 93.2722 74.439 92.851 74.4822 92.3953C74.7848 90.7799 73.0512 89.207 72.1554 87.9812C71.2596 86.7554 70.1849 85.3161 69.2092 83.9803C68.8476 83.5791 68.3429 83.336 67.8037 83.3033C67.2646 83.2705 66.7342 83.4509 66.3267 83.8054C65.9323 84.171 65.694 84.6747 65.6614 85.2115C65.6288 85.7484 65.8045 86.2772 66.1518 86.6878V86.6878Z" fill="#FF8D7F"/>
<path d="M48.5246 28.9013C47.4699 15.5839 47.5772 15.5577 46.9528 14.26C46.7917 13.958 46.547 13.7089 46.2479 13.5424C45.9488 13.3759 45.6081 13.2992 45.2665 13.3215C44.925 13.3437 44.5971 13.4639 44.3221 13.6678C44.0472 13.8716 43.8368 14.1504 43.7162 14.4707C43.2382 15.9137 43.331 15.6599 44.5055 29.6973C44.6187 30.2306 44.9358 30.6985 45.3891 31.0013C45.8424 31.3041 46.3961 31.4178 46.9321 31.3181C47.4653 31.2025 47.9329 30.8848 48.2368 30.4317C48.5408 29.9787 48.6575 29.4255 48.5624 28.8883L48.5246 28.9013Z" fill="#FF8D7F"/>
<path d="M69.5065 35.5901C70.9034 33.9028 72.1146 32.07 73.1193 30.1235C74.0495 28.3036 75.7284 25.6457 74.3808 23.7185C74.202 23.5094 73.9698 23.3528 73.709 23.2653C73.4482 23.1779 73.1685 23.1628 72.8998 23.2218C70.9092 23.7983 70.3946 26.5223 69.52 28.1963C68.5598 30.0125 67.4444 31.7424 66.1862 33.3664C66.0261 33.584 65.9118 33.8317 65.8501 34.0946C65.7884 34.3576 65.7806 34.6303 65.8271 34.8963C65.8736 35.1623 65.9736 35.4162 66.1209 35.6426C66.2682 35.8689 66.4599 36.0631 66.6843 36.2134C66.9087 36.3637 67.1612 36.467 67.4266 36.517C67.692 36.567 67.9648 36.5628 68.2285 36.5046C68.4922 36.4463 68.7414 36.3353 68.9611 36.1781C69.1807 36.0209 69.3662 35.8209 69.5065 35.5901Z" fill="#FF8D7F"/>
<path d="M98.4449 47.1418C98.6916 46.7551 98.7796 46.288 98.6904 45.838C98.6011 45.388 98.3416 44.9899 97.966 44.7266C96.5807 43.584 94.0106 44.4437 92.4292 44.7954C90.5902 45.2179 88.7878 45.7862 87.039 46.4948C86.8003 46.6116 86.5874 46.7748 86.4125 46.9749C86.2376 47.1749 86.1044 47.4078 86.0206 47.66C85.9367 47.9121 85.9039 48.1784 85.9242 48.4434C85.9444 48.7083 86.0172 48.9666 86.1384 49.203C86.3892 49.6684 86.8077 50.0209 87.309 50.1888C87.8103 50.3567 88.3567 50.3274 88.8372 50.1069C95.5686 47.6941 96.8768 49.0746 98.4449 47.1418Z" fill="#FF8D7F"/>
</svg>
