<svg width="111" height="110" viewBox="0 0 111 110" fill="none" xmlns="http://www.w3.org/2000/svg">
<path d="M59.7296 48.1165C61.4098 46.936 63.3316 46.144 65.3556 45.7977C67.3797 45.4513 69.4554 45.5594 71.4325 46.1141C72.8235 46.4728 74.128 47.1077 75.2686 47.9809C76.4091 48.8541 77.3624 49.9478 78.0716 51.197C78.7808 52.4462 79.2315 53.8252 79.3968 55.2521C79.5621 56.679 79.4387 58.1246 79.0339 59.5028C77.2745 66.1207 69.3962 72.4044 52.5232 75.2062C39.3017 64.3884 35.5545 55.0277 37.3139 48.4098C37.6498 47.0125 38.2627 45.6969 39.1163 44.5408C39.97 43.3847 41.0469 42.4117 42.2834 41.6794C43.5199 40.9471 44.8908 40.4704 46.3149 40.2775C47.739 40.0846 49.1873 40.1795 50.574 40.5565C52.5648 41.0597 54.4189 41.999 56.0023 43.3065C57.5857 44.6139 58.8588 46.2568 59.7296 48.1165Z" fill="#FF8D7F"/>
</svg>
