<svg width="49" height="41" viewBox="0 0 49 41" fill="none" xmlns="http://www.w3.org/2000/svg">
<path d="M5.31873 8.04576C-2.79359 16.2067 1.09445 30.6355 9.91348 36.535C19.6578 43.0369 33.3664 41.4888 41.7263 33.4333C50.7889 24.7141 50.9436 12.3036 42.374 4.47932C34.0089 -3.08734 22.1893 0.456123 18.5925 10.4416C16.0187 17.6135 19.6125 23.7815 23.4776 24.2328C26.4849 24.5869 28.7536 21.3674 26.6837 18.9056C26.26 18.4488 25.7133 18.1242 25.1093 17.9711C24.5054 17.818 23.8701 17.8428 23.28 18.0425C21.7627 15.4969 22.7498 9.92592 27.457 6.72701C33.4564 2.64124 40.6393 7.65317 42.9656 13.5156C45.9283 20.957 41.4044 28.6387 35.1042 32.6795C28.4894 36.9128 19.1807 37.0798 12.5788 32.7145C8.98236 30.2929 6.47907 26.5574 5.60659 22.3104C4.73411 18.0634 5.56204 13.6437 7.91254 10.0004C8.17174 9.65644 8.28369 9.22359 8.22375 8.79709C8.16381 8.37059 7.93692 7.98536 7.59296 7.72616C7.24899 7.46696 6.81615 7.35502 6.38965 7.41496C5.96315 7.47489 5.57793 7.7018 5.31873 8.04576Z" fill="#70B2F5"/>
</svg>
