<svg width="47" height="47" viewBox="0 0 47 47" fill="none" xmlns="http://www.w3.org/2000/svg">
<path d="M2.05105 18.9171L15.4139 15.0033L19.7804 1.773C19.8911 1.43292 20.0952 1.13078 20.3693 0.900983C20.6433 0.671182 20.9764 0.522953 21.3306 0.47317C21.6848 0.423388 22.0458 0.47406 22.3726 0.619405C22.6994 0.764749 22.9788 0.998931 23.1791 1.29529L31.0431 12.8286L44.9739 12.8852C45.335 12.8823 45.6896 12.9813 45.997 13.1708C46.3043 13.3603 46.552 13.6326 46.7116 13.9566C46.8712 14.2805 46.9362 14.6428 46.8992 15.002C46.8621 15.3612 46.7245 15.7027 46.5022 15.9872L37.9871 27.0135L42.2291 40.2851C42.3234 40.6206 42.324 40.9755 42.2311 41.3113C42.1381 41.6472 41.9551 41.9512 41.7017 42.1904C41.4484 42.4297 41.1344 42.5951 40.7938 42.6687C40.4532 42.7423 40.0989 42.7213 39.7693 42.6081L26.6596 37.9149L15.3465 46.0206C15.0576 46.231 14.7154 46.3562 14.3588 46.3818C14.0023 46.4074 13.6457 46.3324 13.3296 46.1654C13.0136 45.9984 12.7507 45.746 12.571 45.437C12.3913 45.1281 12.3018 44.7748 12.3129 44.4175L12.7429 30.5278L1.46606 22.2995C1.17605 22.09 0.950697 21.8033 0.815676 21.472C0.680654 21.1407 0.641392 20.7782 0.702362 20.4256C0.763332 20.0731 0.92208 19.7448 1.16053 19.4781C1.39897 19.2114 1.70753 19.017 2.05105 18.9171Z" fill="#FFCD7B"/>
</svg>
