<svg width="320" height="115" viewBox="0 0 320 115" fill="none" xmlns="http://www.w3.org/2000/svg"><path d="M12.645 14.561c-3.773.63-7.542 1.266-11.306 1.908a2738.306 2738.306 0 00-20.879 3.64c-3.398.604-6.827 1.398-10.268 1.833-1.015.129-1.942-.02-2.954 0-1.547 0-3.146.367-4.65.607a250.33 250.33 0 00-38.935 9.337c-3.719 1.217-7.929 3.099-8.08 6.083-.172 3.351 4.833 5.39 9.184 6.27 1.904.383 3.603.993 5.574 1.231a25.72 25.72 0 005.208.092c-2.597-1.16-4.645-2.982-5.72-5.087a1610.83 1610.83 0 017.036 4.35 4.873 4.873 0 011.344-3.236l1.853 4.477a16.193 16.193 0 012.32-.418c.523-.026 1.018.106 1.539.123 1.716.066 3.56-.17 5.265-.338a7.997 7.997 0 00-1.25.424l-2.537.859-4.41 1.5c-2.185.745-4.367 1.521-6.578 2.215-1.101.349-2.177.759-3.224 1.188a43.394 43.394 0 00-5.972 2.99c-1.287.776-2.63 1.853-2.316 3.059.314 1.206 2.065 1.799 3.612 2.17a74.431 74.431 0 0016.612 2.032 4.612 4.612 0 01-1.244-3.664c1.676 1.38 3.35 2.763 5.022 4.147a3.544 3.544 0 011.064-2.775c.71 1.327 1.417 2.655 2.122 3.984.092-.573 1.05-.825 1.77-.67.721.155 1.273.573 1.877.9a8.726 8.726 0 004.725.956c.71-.096 1.426-.136 2.142-.118.972.078 1.962.038 2.937.038 11.132 0 23.21.647 33.998-.527a78.087 78.087 0 00-16.348 3.594c-1.113.375-2.483.659-3.56 1.097-.947.384-1.685 1.177-2.415 1.753l-2.86 2.268c2.486 1.34 5.177 2.936 8.269 3.29 1.507.176 2.911.743 4.35 1.11a57.652 57.652 0 0010.01 1.62 15.637 15.637 0 01-4.51-6.3 31.978 31.978 0 006.358 5.541c.24-1.527.481-3.055.724-4.582 1.767 1.647.672 4.296 2.288 6.037 1.038 1.12 2.883 1.527 4.602 1.581 1.412.072 2.817.254 4.201.544 1.948.358 4.056.324 6.05.381 2.27.063 4.541.094 6.812.092 5.091 0 10.176-.129 15.262-.26 3.369-.087 6.735-.173 10.105-.221 1.481-.02 3.008.068 4.487-.078a8.724 8.724 0 002.248-.572c2.11-.802 4.267-.797 6.518-1.203-1.475-1.066-3.189-1.98-4.699-3.033a68.488 68.488 0 01-4.482-3.397 54.68 54.68 0 019.77 5.132c-.228-1.921.438-3.898 1.857-5.504a6.212 6.212 0 01.92 5.032c.679-1.848 2.52-3.437 4.863-4.17-.59 2.136-1.174 4.273-1.753 6.41.063-.238 6.049-.144 6.655-.14 2.265 0 4.529.043 6.79.13 2.261.089 4.518.224 6.77.407 1.413.115 2.26.419 3.552.1.924-.228 1.91-.352 2.86-.518l5.826-1.04a3.557 3.557 0 01-.38-4.086 15.012 15.012 0 003.718 5.029 6.872 6.872 0 013.032-2.758c-.092.45-.035.918.16 1.335a1.357 1.357 0 001.43.587c.778-.204.878-1.066 1.576-1.4.775-.37 1.85.174 2.068.858.217.685-.14 1.375-.489 2.005 1.61-.074 3.232-.114 4.839-.223.529-.034.958-.19 1.467-.266.758-.115 1.596-.084 2.369-.12 13.514-.608 27.042-1.21 40.587-1.146 2.433.013 4.866.05 7.297.111 1.91.049 3.844.2 5.754.186.36.001.72-.026 1.076-.08.572-.086 1.084-.246 1.656-.286 2.019-.17 4.167 0 6.195.028a5.406 5.406 0 01-1.551-2.755c.715.304.947.98 1.29 1.547.344.567 1.11 1.145 1.871.905.978-.286.752-1.538 1.627-1.985.712-.364 1.745.066 2.06.67.314.605.134 1.29-.052 1.925a4.893 4.893 0 012.428-.997c.93-.088 1.959.2 2.42.822.46.622.149 1.544-.724 1.802 2.24.223 4.479.475 6.722.676 1.447.131 2.714-.207 4.135-.212 2.171 0 4.419.35 6.579.544l6.781.604c6.824.607 13.648 1.192 20.487 1.656l1.015.068c5.509.364 11.023.642 16.549.79 2.816.075 5.635.113 8.457.115 2.72 0 5.483.032 8.2-.123.344-.017.658-.094.993-.14a6.24 6.24 0 011.244.031c.979.06 1.961.019 2.932-.123a13.18 13.18 0 003.612-1.054c-3.226-4.23-4.862-9.165-4.648-14.033a62.297 62.297 0 006.318 10.13c-.028-2.134.953-4.265 2.734-5.915a21.532 21.532 0 01-.715 7.352c2.048-2.29 4.345-4.743 7.823-5.622a2380.9 2380.9 0 00-2.517 6.015c-.16.38-.312.804-.086 1.145.26.407.904.573 1.482.662 2.164.368 4.369.428 6.549.18 1.402-.174 2.506-.859 3.927-1.008 2.185-.212 4.382-.358 6.579-.573 4.187-.412 8.357-.928 12.484-1.618a116.628 116.628 0 0012.144-2.672l.24-.069c1.016-.286 2.045-.601 2.86-1.145.816-.544 1.408-1.35 1.27-2.166-.137-.816-.898-1.431-1.653-2.004-4.905-3.64-11.077-6.301-17.733-7.67.569.082 1.142.136 1.717.16l2.053.19a1358.534 1358.534 0 0013.011 1.111c5.566.446 11.123.959 16.68 1.454 2.837.252 5.675.495 8.515.728 1.301.106 2.605.226 3.909.286.239.016.479.016.718 0 .73-.051 1.379-.246 2.131-.258l3.432-.04 1.716-.02c-2.611-.43-4.942-1.77-6.186-3.557 2.273 1.106 4.542 2.212 6.807 3.32.043-.524.103-1.08.529-1.495.426-.416 1.364-.573 1.808-.158.443.415.145.971-.152 1.432a34.894 34.894 0 014.662-2.214c.615-.24 1.502-.418 1.896 0 .24.264.14.622 0 .922a7.628 7.628 0 01-2.211 2.799c.143-.12 1.076-.095 1.302-.115l1.43-.126 2.814-.24c.832-.072 1.819-.273 2.651-.19.821.054 1.644.044 2.463-.028 2.002-.103 4.004-.332 6.006-.321 1.482 0 2.963 0 4.442-.077a77.587 77.587 0 008.803-.905 73.021 73.021 0 0016.589-4.672c.727-.303 1.444-.62 2.151-.948 1.324-.61 2.731-1.389 2.974-2.543.195-.928-.434-1.841-1.124-2.632-2.316-2.672-5.542-4.906-9.295-6.427 2.86.184 5.752.23 8.626.126.864.014 1.728-.066 2.574-.24.958-.252 2.097-.115 3.101-.104.314 0 .68 0 .858-.191.26-.252.028-.61-.192-.883a7.863 7.863 0 01-1.799-5.392 22.323 22.323 0 014.073 5.524c.615-1.389 2.231-2.5 4.144-2.847l-1.275 2.864c.051-.117 1.43-.286 1.627-.318l1.699-.332c1.075-.206 2.168-.39 3.22-.647a105.681 105.681 0 007.977-2.286l.272-.091V33.553c-.191-.077-.388-.151-.592-.224a367.439 367.439 0 00-22.561-7.515c-2.171-.647-4.599-1.114-6.629-1.976a9.227 9.227 0 00-1.319-.553c-3.2-.859-7.007-1.09-10.351-1.58a1201.916 1201.916 0 00-63.271-7.552c-5.5-.51-11.189-1.508-16.723-.86-2.532.3-4.782.023-7.285-.367a3380.115 3380.115 0 00-21.036-3.19 3022.6 3022.6 0 00-32.937-4.689c5.577.088 11.15.2 16.72.335-3.814-.154-7.634-.303-11.461-.447-4.9-.18-9.799-.344-14.698-.495-2.439-.075-4.879-.166-7.319-.218-.909-.017-1.716.11-2.625-.043-.286-.048-3.558-.498-3.553-.312-.017-.44-.031-.882-.048-1.32a6.983 6.983 0 00-2.84.573c-.111-.926-.223-1.852-.338-2.776a5.908 5.908 0 00-2.277 3.048 9.058 9.058 0 01-3.183-3.308 7.138 7.138 0 001.058 3.849c-1.367-.27-2.551-.086-3.918-.032-1.49.06-3.146-.171-4.633-.2a2578.23 2578.23 0 00-42.27-.473c-1.327 0-2.574-.051-3.861-.18-1.43-.137-3.063.175-4.479.286l-.366-1.5a5.808 5.808 0 00-2.763 1.394 3.718 3.718 0 00-2.102-1.432l1.43 1.464-1.33.094c-.902.062-1.807.032-2.703-.088-2.423-.272-5.148 0-7.611.014a2571.288 2571.288 0 00-48.991.776c-15.37.382-30.735.906-46.093 1.572A3009.57 3009.57 0 0054.66 7.877a2856.009 2856.009 0 00-42.015 6.684zm44.046 15.226c.432-1.513 1.98-2.884 4.047-3.578.183-.06.194 3.463.18 3.747 4.09-.479 7.988-1.507 12.133-1.833 6.16-.482 12.347-.797 18.525-1.103 12.401-.61 24.82-.991 37.233-1.226 4.095-.078 8.195-.142 12.298-.192-.769-.131-.735.092-1.504-.04.077-.644 1.785-.954 3.169-1.094a682.557 682.557 0 0124.929-2.073c1.209-.08 2.405-.221 3.601-.124a20.72 20.72 0 006.229-.498c-1.39-.286-2.139-1.51-1.459-2.374a13.425 13.425 0 004.004 3.37c.668-1.22 1.327-2.44 1.98-3.662a960.052 960.052 0 011.607 3.173 4.035 4.035 0 01.907-1.718 3.008 3.008 0 012.305-.825c.912.077 1.67.764 1.296 1.326 3.111 0 6.226.14 9.315.08 17.833-.35 36.976-.478 54.505 1.601 2.86.338 5.672.765 8.389 1.315 1.144.232 2.574.45 3.546.859 1.299.53.904 1.208.375 1.841-1.43 1.693-4.473 3.045-8.414 3.437 1.596-.157 3.578-.04 5.222-.043 2.098 0 4.195.005 6.293.015 10.144.083 20.349-.05 30.666.572 13.983.845 27.963 1.793 41.875 3.182 2.608.26 5.634.126 7.722 1.275.678.37 2.125.75 2.574 0 .238-.398-.157-.834-.483-1.212-1.167-1.352-1.588-2.978-1.144-4.485.966 1.507 1.929 3.014 2.888 4.523.401-1.112 1.531-2.083 3.038-2.607a6.62 6.62 0 01-1.196 3.437c.638-.633 2.108-.84 3.024-.35.915.49.858 1.607-.146 1.948.735-.246 2.325-.057 3.129 0 1.092.08 2.113.312 3.189.453.657.083 1.295.037 1.956.071 1.126.099 2.245.256 3.355.47 7.699 1.206 15.465 2.761 21.665 5.39 1.533.65 3.055 1.46 3.172 2.369.077.587-.46 1.122-1.19 1.552a10.748 10.748 0 01-5.388 1.358c-.632 0-6.375.716-6.478.286-.178-.768-.358-1.532-.535-2.291-1.164.32-2.034 1.065-2.237 1.91l-1.979-3.15c-.904.939.686 2.334-.094 3.325-.838 1.057-2.912.512-4.291.573-4.416.168-8.96-.055-13.391-.204a458.938 458.938 0 01-11.586-.541 316.108 316.108 0 0131.988 3.97c2.665.472 5.7 1.165 6.552 2.443.852 1.277-.741 2.125-2.262 2.577-5.011 1.52-11.355 1.51-16.763 1.667-8.06.232-16.143.163-24.206.049-3.943-.054-7.888-.123-11.835-.21-1.804-.037-3.672.02-5.434-.254-.652-.11-8.057-.53-8.065-.51l2.288-3.993c.151-.263.286-.613-.038-.804a1.36 1.36 0 00-.812-.098c-2.288.227-4.321 1.323-5.171 2.787a5.271 5.271 0 00-.16-3.176c-1.61.773-2.44 2.23-2.039 3.566a1004.713 1004.713 0 00-5.097-4.173c.709 2.065 2.603 3.943 5.174 5.138-7.253 1.191-14.647.945-22.069.839-21.494-.31-43.231-.994-64.221-4.631-1.716-.287-3.601-.69-4.33-1.481-.572-.627.286-1.478 1.521-1.633h-.989l-3.106-.028c-.572 0-1.067-.035-1.605-.057-.678-.023-1.31-.02-2.002 0-7.436.243-14.89.398-22.34.572-12.585.31-25.055.287-37.548.462-2.703.037-5.4.174-8.065-.064-1.35-.12-2.86.184-4.205.321l-4.522.467a10.257 10.257 0 002.211-2.907c.215-.432.243-1.063-.403-1.174a1.714 1.714 0 00-.887.16 16.882 16.882 0 00-5.168 3.13 8.221 8.221 0 01.263-5.39c-1.681 1.246-2.514 2.996-2.233 4.663-1.717-2.196-3.44-4.391-5.172-6.587a22.823 22.823 0 003.67 8.377c-2.288.069-4.576 0-6.864.106-7.806.367-15.634.619-23.453.659a364.167 364.167 0 01-16.303-.26 289.367 289.367 0 01-8.143-.43 6.728 6.728 0 01-2.746-.628c-.243-.106-3.097-.552-2.983-.12l-.99-3.692c-1.189.413-2.07 1.22-2.307 2.111a1027.02 1027.02 0 00-4.825-2.397c-.355 1.314.303 2.724 1.69 3.637a25.33 25.33 0 01-4.505-.286c-1.37-.215-2.482-.676-3.852-.9-3.146-.51-6.822-1.655-5.666-3.233.512-.699 1.87-1.206 3.183-1.638a95.761 95.761 0 0118.914-4.044c-5.88.673-11.752 1.386-17.655 1.942-2.978.286-6.007.573-8.99.687-1.204.043-2.388-.235-3.626-.232a22.773 22.773 0 00-4.102.384 6.392 6.392 0 00.635-4.096c-2.142.553-3.815 1.9-4.25 3.411a994.68 994.68 0 01-.74-3.723 3.15 3.15 0 00-.724 2.844 101.593 101.593 0 01-6.988-3.623c.767 2.077 2.515 3.961 4.923 5.319-2.503.395-4.49.206-6.956-.086-1.942-.232-3.944-.038-5.903-.195-2.034-.16-4.053-.338-6.061-.639a67.763 67.763 0 01-7.814-1.64c-1.373-.379-2.969-1.066-2.883-2.172.086-1.105 1.685-1.638 3.04-1.962a243.367 243.367 0 0149.71-6.544 11.762 11.762 0 00-1.068-1.484c-.377-.386-.491-.907-.66-1.371-.39-1.086-.698-2.2-.921-3.331 0-.069-.026-.135-.037-.204a37.38 37.38 0 005.794 5.07 5.4 5.4 0 011.173-4.053l1.207 4.56z" fill="#FFF6EF"/><path d="M54.311 29.265a37.38 37.38 0 01-5.794-5.069c0 .069.025.135.037.203.223 1.134.53 2.25.92 3.337.17.464.287.985.661 1.372.394.466.75.962 1.067 1.483a243.367 243.367 0 00-49.709 6.556c-1.355.324-2.957.894-3.04 1.962-.083 1.068 1.51 1.793 2.883 2.171 2.57.698 5.18 1.244 7.814 1.635 2.002.301 4.027.479 6.06.639 1.96.157 3.962-.037 5.904.195 2.465.286 4.453.48 6.956.086-2.409-1.358-4.156-3.242-4.923-5.319a99.876 99.876 0 006.988 3.623 3.154 3.154 0 01.723-2.844c.246 1.243.493 2.484.741 3.723.435-1.512 2.108-2.864 4.25-3.41a6.392 6.392 0 01-.635 4.095 22.764 22.764 0 014.102-.384c1.238 0 2.422.287 3.626.232 2.995-.106 6.007-.41 8.99-.687 5.903-.556 11.775-1.269 17.655-1.942a95.758 95.758 0 00-18.928 4.055c-1.313.433-2.672.94-3.184 1.639-1.144 1.578 2.509 2.723 5.666 3.233 1.37.224 2.483.685 3.853.9 1.49.229 2.998.325 4.505.286-1.388-.914-2.045-2.323-1.69-3.637 1.612.796 3.22 1.595 4.824 2.397.238-.891 1.119-1.699 2.309-2.111l.99 3.692c-.115-.433 2.74.014 2.982.12.861.4 1.797.614 2.746.627 2.71.182 5.424.325 8.143.43 5.434.215 10.868.286 16.302.26 7.808-.04 15.637-.286 23.453-.658 2.288-.11 4.576-.038 6.865-.106a22.823 22.823 0 01-3.67-8.378c1.733 2.19 3.457 4.386 5.171 6.588-.286-1.667.552-3.417 2.234-4.663a8.215 8.215 0 00-.263 5.39 16.856 16.856 0 015.168-3.13c.276-.132.582-.187.887-.16.646.111.617.741.403 1.174a10.291 10.291 0 01-2.211 2.907l4.522-.467c1.338-.138 2.86-.441 4.204-.321 2.666.238 5.363.1 8.066.063 12.493-.166 24.969-.152 37.547-.461 7.437-.183 14.902-.338 22.341-.573a27.442 27.442 0 012.002 0c.538.023 1.041.054 1.604.057l3.107.029h.989c.299-.035.601-.03.898.017a.545.545 0 01.109.017l-.109-.017c-.183-.017-.54-.02-.898-.017-1.233.155-2.102 1.005-1.521 1.633.729.79 2.608 1.182 4.33 1.48 20.99 3.638 42.727 4.322 64.221 4.631 7.436.106 14.815.353 22.068-.839-2.574-1.194-4.464-3.073-5.173-5.138 1.704 1.388 3.403 2.78 5.096 4.173-.4-1.335.429-2.792 2.04-3.566a5.287 5.287 0 01.16 3.176c.858-1.463 2.883-2.56 5.171-2.786.274-.052.558-.018.812.097.315.192.189.541.037.805l-2.288 3.992c0-.02 7.414.401 8.066.51 1.764.287 3.632.218 5.434.255 3.943.084 7.888.154 11.835.21 8.063.114 16.145.182 24.205-.05 5.409-.157 11.753-.145 16.763-1.666 1.522-.464 3.118-1.31 2.263-2.578-.855-1.269-3.887-1.97-6.553-2.443a316.081 316.081 0 00-31.987-3.97 559.74 559.74 0 01-5.669-.366c1.89.103 3.781.229 5.669.367 3.859.225 7.721.405 11.586.54 4.43.15 8.975.373 13.391.204 1.382-.054 3.455.49 4.29-.573.781-.99-.809-2.385.095-3.325a383.06 383.06 0 011.979 3.15c.203-.859 1.072-1.589 2.236-1.91l.535 2.291c.103.439 5.846-.286 6.478-.286 1.884.028 3.742-.44 5.389-1.357.729-.43 1.267-.966 1.19-1.553-.118-.908-1.639-1.718-3.172-2.368-6.201-2.63-13.966-4.185-21.665-5.39a32.758 32.758 0 00-3.355-.47c-.661-.034-1.299 0-1.957-.072-1.075-.14-2.096-.372-3.189-.452-.803-.057-2.394-.246-3.129 0 1.016-.341 1.061-1.46.146-1.948-.915-.487-2.385-.286-3.023.35a6.61 6.61 0 001.195-3.437c-1.507.524-2.637 1.495-3.037 2.606a606.336 606.336 0 00-2.889-4.522c-.44 1.506-.02 3.133 1.144 4.485.326.378.721.813.484 1.211-.449.75-1.897.37-2.574 0-2.097-1.145-5.123-1.014-7.723-1.274-13.911-1.39-27.892-2.337-41.875-3.182-10.316-.624-20.521-.493-30.666-.573a532.123 532.123 0 00-6.292-.014c-1.645 0-3.627-.115-5.223.043 3.942-.387 6.993-1.739 8.415-3.437.529-.633.924-1.312-.375-1.842-.975-.398-2.397-.615-3.546-.859-2.718-.55-5.535-.977-8.389-1.314-17.53-2.08-36.673-1.95-54.505-1.601-3.089.06-6.204-.078-9.316-.08.375-.573-.383-1.25-1.295-1.327a3.009 3.009 0 00-2.306.825 4.044 4.044 0 00-.906 1.719c-.534-1.058-1.07-2.116-1.608-3.174a408.422 408.422 0 01-1.979 3.663 13.413 13.413 0 01-4.004-3.37c-.681.859.068 2.079 1.458 2.374-2.039.48-4.139.648-6.229.498-1.195-.097-2.391.043-3.601.123-2.784.178-5.564.374-8.34.59-5.545.426-11.074.92-16.589 1.484-1.384.14-3.091.45-3.169 1.094.77.131.736-.092 1.505.04-4.096.051-8.195.115-12.299.192-12.413.235-24.831.616-37.233 1.226-6.178.306-12.364.621-18.525 1.102-4.144.327-8.042 1.355-12.132 1.833 0-.286 0-3.806-.18-3.746-2.068.693-3.616 2.065-4.047 3.577l-1.21-4.582a5.394 5.394 0 00-1.156 4.052z" fill="#fff"/><path d="M450.818 46.091a109.444 109.444 0 01-6.335 1.762c-1.053.258-2.145.44-3.221.647l-1.699.332c-.2.037-1.576.2-1.627.318.423-.954.848-1.91 1.276-2.864-1.914.347-3.53 1.458-4.145 2.847a22.298 22.298 0 00-4.073-5.525 7.867 7.867 0 001.799 5.393c.221.272.452.63.192.882-.192.184-.572.195-.858.192-1.004 0-2.142-.149-3.1.103-.847.174-1.71.255-2.574.24a86.676 86.676 0 01-8.627-.125c3.753 1.52 6.979 3.755 9.296 6.427.689.79 1.318 1.718 1.124 2.632-.243 1.145-1.65 1.933-2.975 2.543-.707.328-1.424.644-2.151.948a73.028 73.028 0 01-16.588 4.671 77.604 77.604 0 01-8.804.905c-1.478.07-2.96.083-4.441.078-2.002 0-4.005.217-6.007.32-.819.073-1.642.083-2.462.03-.832-.084-1.819.117-2.652.188l-2.814.24-1.43.127c-.226.02-1.158 0-1.301.114a7.638 7.638 0 002.211-2.798c.134-.3.234-.659 0-.922-.395-.43-1.282-.252-1.897 0a34.953 34.953 0 00-4.662 2.214c.286-.453.572-1.034.152-1.432-.421-.398-1.379-.255-1.808.157-.429.413-.486.971-.529 1.495a3666.484 3666.484 0 00-6.807-3.32c1.244 1.788 3.575 3.128 6.187 3.558l-1.717.02-3.432.04c-.752 0-1.401.206-2.13.258a5.444 5.444 0 01-.718 0c-1.305-.075-2.609-.195-3.91-.287-2.839-.229-5.677-.471-8.515-.727-5.557-.495-11.114-1.008-16.68-1.455a1227.573 1227.573 0 01-13.011-1.111l-2.053-.19a16.849 16.849 0 01-1.716-.16c6.655 1.358 12.827 4.03 17.733 7.67.755.573 1.521 1.206 1.653 2.005.131.8-.449 1.627-1.27 2.165-.821.539-1.851.86-2.86 1.146l-.241.069a116.546 116.546 0 01-12.144 2.672c-4.127.69-8.294 1.206-12.484 1.618-2.185.212-4.382.358-6.578.573-1.43.137-2.526.833-3.927 1.008a23.34 23.34 0 01-6.55-.18c-.572-.098-1.221-.255-1.481-.662-.226-.355-.075-.779.085-1.146a1594.73 1594.73 0 012.517-6.014c-3.478.88-5.774 3.322-7.822 5.622.659-2.391.901-4.878.715-7.352-1.782 1.65-2.763 3.78-2.734 5.914a62.16 62.16 0 01-6.318-10.13c-.224 4.886 1.43 9.812 4.647 14.034a13.17 13.17 0 01-3.612 1.054c-.971.141-1.953.183-2.932.123a6.238 6.238 0 00-1.244-.032c-.334.046-.649.124-.992.14-2.717.155-5.48.124-8.2.124-2.82 0-5.639-.038-8.458-.115a425.035 425.035 0 01-16.548-.79l-1.016-.069c-6.838-.464-13.662-1.048-20.487-1.655l-6.781-.605c-2.157-.194-4.405-.55-6.578-.544-1.43 0-2.689.344-4.136.212-2.242-.2-4.482-.452-6.721-.676.858-.257 1.184-1.18.723-1.801-.46-.622-1.49-.91-2.419-.822a4.896 4.896 0 00-2.429.997c.186-.636.367-1.318.052-1.925s-1.347-1.034-2.059-.67c-.876.447-.65 1.684-1.628 1.985-.761.229-1.53-.341-1.87-.905-.341-.565-.572-1.243-1.29-1.547a5.412 5.412 0 001.55 2.755c-2.028-.023-4.176-.197-6.195-.029-.572.046-1.095.207-1.656.287-.356.054-.716.08-1.075.08-1.911.014-3.844-.137-5.755-.186a343.8 343.8 0 00-7.296-.112c-13.546-.077-27.074.524-40.588 1.146-.772.037-1.61 0-2.368.12-.509.078-.938.232-1.468.266-1.607.11-3.229.15-4.839.224.349-.642.707-1.34.489-2.005-.217-.664-1.293-1.223-2.068-.86-.697.336-.798 1.198-1.576 1.401a1.352 1.352 0 01-1.43-.587 2.145 2.145 0 01-.16-1.334 6.872 6.872 0 00-3.032 2.758 15.011 15.011 0 01-3.718-5.03 3.558 3.558 0 00.33 4.002L93.2 80.27c-.947.166-1.933.286-2.86.518-1.293.318-2.14 0-3.552-.1-2.25-.191-4.507-.327-6.77-.407-2.263-.08-4.528-.125-6.793-.134-.606 0-6.593-.098-6.655.14a612.19 612.19 0 011.753-6.41c-2.34.74-4.182 2.323-4.862 4.17a6.214 6.214 0 00-.921-5.032c-1.43 1.607-2.085 3.583-1.856 5.505a54.687 54.687 0 00-9.77-5.133 68.816 68.816 0 004.481 3.397c1.51 1.054 3.223 1.968 4.7 3.033-2.252.407-4.408.401-6.519 1.203-.72.29-1.477.483-2.248.573-1.479.146-3.006.057-4.488.077-3.369.049-6.735.135-10.104.22-5.086.132-10.17.261-15.259.261-2.275 0-4.547-.03-6.816-.091-2.002-.058-4.101-.023-6.049-.381a27.136 27.136 0 00-4.201-.544c-1.716-.055-3.564-.462-4.602-1.581-1.613-1.719-.518-4.39-2.288-6.038a1269.79 1269.79 0 00-.724 4.583 31.981 31.981 0 01-6.358-5.542 15.637 15.637 0 004.51 6.3 57.652 57.652 0 01-10.01-1.62c-1.43-.367-2.843-.934-4.35-1.109-3.092-.355-5.783-1.95-8.269-3.29l2.86-2.269c.73-.573 1.468-1.369 2.414-1.753 1.078-.438 2.448-.721 3.561-1.096a78.087 78.087 0 0116.348-3.595c-10.788 1.174-22.866.516-33.998.527-.975 0-1.965.04-2.937-.037a13.424 13.424 0 00-2.142.117 8.724 8.724 0 01-4.725-.956c-.604-.333-1.144-.748-1.877-.9-.732-.151-1.678.112-1.77.67a593.631 593.631 0 00-2.122-3.983 3.539 3.539 0 00-1.064 2.775c-1.67-1.384-3.345-2.767-5.022-4.147a4.617 4.617 0 001.244 3.663 74.432 74.432 0 01-16.612-2.03c-1.547-.373-3.298-.98-3.612-2.172-.315-1.191 1.03-2.29 2.317-3.058a43.382 43.382 0 015.971-2.99c1.047-.43 2.123-.84 3.224-1.189 2.202-.693 4.384-1.47 6.578-2.214l4.41-1.5 2.537-.86a7.997 7.997 0 011.25-.424c-1.716.17-3.544.404-5.265.338-.52-.017-1.016-.149-1.54-.123-.774.089-1.542.233-2.296.433l-1.844-4.477a4.873 4.873 0 00-1.345 3.236c-2.34-1.455-4.685-2.905-7.036-4.35 1.067 2.105 3.115 3.927 5.72 5.087-1.734.145-3.48.115-5.208-.092-1.97-.238-3.67-.86-5.574-1.232-4.35-.879-9.356-2.918-9.184-6.269.152-2.984 4.362-4.869 8.08-6.083a250.343 250.343 0 0138.929-9.351c1.51-.24 3.103-.599 4.65-.608 1.013 0 1.94.144 2.955 0 3.432-.435 6.864-1.228 10.268-1.832a2984.699 2984.699 0 0132.185-5.548 3010.953 3010.953 0 0157.088-8.942l.763-.114a796.021 796.021 0 00-166.91 9.357v94.513c.381 1.878.77 3.758 1.17 5.639 182.475-10.462 365.4-11.505 547.972-.808V45.476l-.271.091c-.544.178-1.093.352-1.642.524z" fill="#FFEBDA"/><path d="M286.747 5.397c-5.567-.136-11.141-.248-16.72-.335a3029.35 3029.35 0 0132.937 4.688A2874.99 2874.99 0 01324 12.94c2.5.39 4.754.668 7.285.367 5.534-.659 11.223.338 16.723.86a1194.572 1194.572 0 0142.27 4.668c7.017.899 14.017 1.86 21.002 2.884 3.343.49 7.15.716 10.351 1.58.453.15.894.335 1.318.553 2.031.86 4.459 1.33 6.63 1.977a365.875 365.875 0 0122.56 7.515l.592.223V16.681c-55.057-6.307-110.369-9.947-165.984-11.284z" fill="#FFF0E3"/></svg>