<svg preserveAspectRatio="none" viewBox="0 0 1172 710" fill="none" xmlns="http://www.w3.org/2000/svg"><path fill-rule="evenodd" clip-rule="evenodd" d="M1172 0H0v710h995.25c-37.982-.84-85.139-2.095-135.915-3.445-89.531-2.382-190.315-5.063-271.897-6.301-171.691-2.562-266.088 1.538-332.797 4.435-61.565 2.674-99.547 4.323-152.94-1.233-77.502-8.069-85.265-75.452-93.079-155.544-8.788-89.522-12.08-278.408 0-386.817C18.928 68.046 38.022-4.795 285.63 1.364 482.704 6.26 964.392 2.97 964.392 2.97c169.998 0 188.468 43.164 197.058 122.774 12.74 117.473 12.74 324.439-.06 450.09-9.87 96.021-40.66 131.011-134.65 134.166H1172V0z" fill="#FFEBDA"/></svg>